<svg xmlns="http://www.w3.org/2000/svg" version="1.1" xmlns:xlink="http://www.w3.org/1999/xlink" width="512" height="512" x="0" y="0" viewBox="0 0 64 64" style="enable-background:new 0 0 512 512" xml:space="preserve" fill-rule="evenodd" class=""><g><path fill="#053649" d="m23.513 32.002 4.242-4.243a2.003 2.003 0 0 1 2.829 0c.78.781.78 2.048 0 2.829l-4.243 4.243 2.828 2.828 4.243-4.243a2.003 2.003 0 0 1 2.829 0c.78.781.78 2.048 0 2.829l-4.243 4.242 1.414 1.415-7.108 7.107c-2.634 2.601-6.631 3.001-9.684 1.199l-6.366 6.366a2 2 0 1 1-2.828-2.828l6.366-6.366c-1.81-3.068-1.398-7.087 1.235-9.721l7.071-7.071zM47.38 13.792l6.366-6.366a2 2 0 1 1 2.828 2.828l-6.366 6.366c1.81 3.068 1.398 7.087-1.235 9.721l-7.071 7.071-11.314-11.314 7.108-7.107c2.634-2.601 6.631-3.001 9.684-1.199z" opacity="1" data-original="#053649"></path><path fill="#3dbff1" d="m23.513 32.002 4.242-4.243a2.003 2.003 0 0 1 2.829 0c.78.781.78 2.048 0 2.829l-4.243 4.243 2.828 2.828 4.243-4.243a2.003 2.003 0 0 1 2.829 0c.78.781.78 2.048 0 2.829l-4.243 4.242 1.414 1.415-7.108 7.107a8.003 8.003 0 0 1-11.277-.036 8.004 8.004 0 0 1 0-11.314l7.071-7.071z" opacity="1" data-original="#3dbff1"></path><path fill="#0b6f96" d="m31.998 40.487-2.829-2.828 4.243-4.243a2.003 2.003 0 0 1 2.829 0c.78.781.78 2.048 0 2.829zM26.341 34.831l-2.828-2.829 4.242-4.243a2.003 2.003 0 0 1 2.829 0c.78.781.78 2.048 0 2.829z" opacity="1" data-original="#0b6f96"></path><path fill="#3dbff1" d="M37.696 14.991a8.003 8.003 0 0 1 11.277.036 8.004 8.004 0 0 1 0 11.314l-7.071 7.071-11.314-11.314 7.071-7.071z" opacity="1" data-original="#3dbff1"></path><path fill="#0b6f96" d="M19.977 44.023a2.003 2.003 0 0 1 0-2.829 2.003 2.003 0 0 1 2.829 0c.78.781.78 2.048 0 2.829-.781.78-2.048.78-2.829 0zM44.023 19.977c.78.781.78 2.048 0 2.829-.781.78-2.048.78-2.829 0a2.003 2.003 0 0 1 0-2.829 2.003 2.003 0 0 1 2.829 0z" opacity="1" data-original="#0b6f96"></path><path d="M21.121 19.88a3 3 0 0 0-4.242 4.242 3 3 0 0 0 4.242-4.242zm-1.414 1.414a1 1 0 1 1-1.416 1.414 1 1 0 0 1 1.416-1.414z" fill="#000000" opacity="1" data-original="#000000"></path><path d="M23.949 17.051a7.003 7.003 0 0 0-9.898 0 1 1 0 1 0 1.414 1.415 5 5 0 0 1 7.07 0 1 1 0 0 0 1.414-1.415z" fill="#000000" opacity="1" data-original="#000000"></path><path d="M26.778 14.223c-4.293-4.293-11.263-4.293-15.556 0a1 1 0 0 0 1.414 1.414c3.513-3.512 9.215-3.512 12.728 0a1 1 0 0 0 1.414-1.414zM21.463 39.61l-.072-.001a2.99 2.99 0 0 0-2.121.878 1 1 0 0 0 1.414 1.415.999.999 0 1 1 .037 1.449l-.074-.071a1.001 1.001 0 0 0-1.377 1.45 3.001 3.001 0 0 0 4.243-4.243 2.994 2.994 0 0 0-2.05-.877zM43.316 22.098a.999.999 0 1 1 0-1.414 1 1 0 0 0 1.414-1.414 3.001 3.001 0 0 0-4.243 4.243 3.003 3.003 0 0 0 4.243 0 1 1 0 0 0-1.414-1.415z" fill="#000000" opacity="1" data-original="#000000"></path><circle cx="28.5" cy="46.82" r="1" fill="#000000" opacity="1" data-original="#000000"></circle><path d="M47.196 12.562c-3.329-1.589-7.435-1.016-10.203 1.717a1.001 1.001 0 0 0 1.405 1.423 7.004 7.004 0 0 1 9.867.032 7.004 7.004 0 0 1 0 9.9l-6.363 6.364-9.9-9.9 4.205-4.204a1 1 0 0 0-1.414-1.415l-4.912 4.912a1 1 0 0 0 0 1.415l11.313 11.313a1 1 0 0 0 1.415 0l7.071-7.071c2.769-2.769 3.355-6.899 1.758-10.244l5.843-5.843a3 3 0 1 0-4.243-4.242zm3.152 2.504 5.519-5.519a1 1 0 0 0-1.414-1.414l-5.519 5.519a9.16 9.16 0 0 1 1.414 1.414zM12.562 47.196l-5.843 5.842a3 3 0 1 0 4.243 4.243l5.842-5.843c3.329 1.589 7.435 1.016 10.203-1.717a1.001 1.001 0 0 0-1.405-1.424 7.004 7.004 0 0 1-9.868-.031 7.005 7.005 0 0 1 0-9.9l6.364-6.364 9.9 9.9-2.013 2.013a.999.999 0 1 0 1.414 1.414l2.72-2.72a1 1 0 0 0 0-1.415l-.707-.707 3.536-3.535a3.001 3.001 0 0 0-4.243-4.243l-3.536 3.536-1.414-1.415 3.536-3.535a3.001 3.001 0 0 0-4.243-4.243l-3.535 3.536-.708-.707a.999.999 0 0 0-1.414 0l-7.071 7.071c-2.769 2.769-3.355 6.899-1.758 10.244zm1.09 1.738-5.519 5.519a1 1 0 0 0 1.414 1.414l5.519-5.519a9.16 9.16 0 0 1-1.414-1.414zm18.346-9.861 3.535-3.535a1 1 0 1 0-1.414-1.415l-3.535 3.536zm-5.657-5.657 3.536-3.535a1 1 0 0 0-1.415-1.414l-3.535 3.535z" fill="#000000" opacity="1" data-original="#000000"></path></g></svg>