<svg xmlns="http://www.w3.org/2000/svg" viewBox="0 0 872.88 872.13"><g id="Layer_2" data-name="Layer 2"><g id="Layer_1-2" data-name="Layer 1"><path d="M456.77,761.52c-12,0-22.54.05-33.07,0-7.25,0-5.82,5.29-5.83,9.47-.06,26.35.25,52.69-.07,79-.2,16.25-14.17,25.68-29,20.12-9.78-3.67-12.76-11.52-12.75-21.21,0-25-.07-49.95-.11-74.92V762.34H337.34c-.18,3.88-.5,7.51-.5,11.14,0,25,0,49.95,0,74.92,0,13.56-8.88,23.21-21.59,23.6-12.4.38-20.48-8.28-20.58-22.85-.19-28.7-.05-57.39-.05-86.9h-39.8c-.22,3.67-.62,7.27-.62,10.87,0,24.63.09,49.27.05,73.9,0,9.31-2,17.75-11.4,22.37-15,7.39-30.53-1.86-30.93-19.18-.57-25-.32-50-.42-74.92,0-3.71,0-7.42,0-9.59l-56.91-13.82c-6.49,6.2-16.22,14.77-24.92,24.28-2.32,2.53-2.3,8-2,12,1.35,18.4-7.39,33.15-24.19,39.88-15.25,6.11-32.23,1.15-42.7-13.24-9.54-13.13-9.83-27.72-2.9-41.8,6.5-13.24,17.6-20.47,33-20.13a15.15,15.15,0,0,0,9.1-2.72c10.17-8.1,20-16.69,29.86-25.1-.89-1.16-1.79-2.31-2.68-3.46-2.87-6.12-6-12.12-8.51-18.4s-4.24-12.84-6.47-19.75c-27.2,0-54.85,0-82.51,0a65.9,65.9,0,0,1-12.26-.7c-11.21-2.17-18-11.24-17-22.1C1.24,651,9,644.07,20.34,644c26.34-.27,52.68-.08,79-.08h12v-27c-4.09-.26-8-.74-12-.73-25.31.07-50.63.42-75.94.33-12.92,0-21-6.11-22.93-16.22-2.75-14.23,5.79-24,21.5-24.16,25.65-.21,51.31-.13,77-.24,4,0,8-.4,12.45-.64V549.61c-3.6-.17-7.19-.48-10.77-.48-26-.07-52,.12-78-.19C8.53,548.77,1.1,542,.55,530,0,517.19,8.67,509.1,23.9,509c25.31-.19,50.63-.08,75.95-.09h11.52V482.13c-3.52-.16-7.1-.45-10.69-.47-25.66-.11-51.32-.13-77-.24-15.1-.07-23.2-7-23.38-19.73C.14,448.64,8.69,441.14,24,441.1c25.66-.07,51.32,0,77-.06h10.49V414.46c-15.6,0-30.55,0-45.51,0-14.71,0-29.42,0-44.13-.21C8.85,414,.42,405.8.11,393.42c-.29-11.89,7.29-19.36,21.34-19.54,27-.36,54.05-.11,81.08-.14,2.69,0,5.38-.25,8.87-.42V346.58H70.3c-15,0-30.1.14-45.16.07C8,346.57.28,339.79.29,325.2.3,312,8,305.87,24.75,305.86q37.47,0,74.93.08h11.71V279.66c-3.71-.19-7.29-.51-10.86-.53-25.66-.09-51.32,0-77-.2C8.24,278.82-.11,271.2.15,258c.25-12.71,8.11-19.38,23.69-19.46,25.31-.14,50.63,0,76,0h11.7V212.13c-18.16,0-35.84,0-53.52,0-11.64,0-23.28.22-34.9-.21C9,211.38.33,203.67,0,192.14c-.34-12,8.28-20.55,23-20.85,27.36-.55,54.74-.56,82.11-.2,7.82.1,12.73-1.35,14.79-9.79,1.18-4.79,4.6-9,7.94-15.25-9.17-8.78-18.76-18.39-28.91-27.36-2.16-1.9-6.31-1.93-9.58-2.12-20.86-1.22-36-17.52-35.66-38.64.35-21.3,15.46-37.1,35.65-37.28C110,40.46,128.06,56.29,127.11,77c-.59,12.93,4.88,20.38,13.35,27.76,5.92,5.15,11.54,10.65,15.23,14.07l56.05-11.34c0-1.5,0-5.1,0-8.71-.12-25-.54-49.95-.28-74.92.16-15.28,8.38-24,21.07-23.74,13.26.23,21.59,9.44,21.66,24.54.14,28,0,56.05,0,84.91h39.58c.15-3.26.48-6.85.48-10.45,0-25-.2-49.95-.11-74.92.06-15,7.91-23.93,20.68-24C328,.08,336.75,9.63,336.76,24.4c0,24.63-.09,49.27-.14,73.9,0,3.65,0,7.29,0,11.46h39.06c.19-3.76.53-7.36.53-11,0-24.64-.15-49.27-.07-73.9C376.18,9.42,384.31.05,397.29,0,409.76,0,418.13,9,418.35,24c.37,24.28.18,48.58.23,72.87v12.78H456.2c.19-3.63.53-7.24.54-10.85.07-25.32,0-50.64.15-75.95C457,13.71,460,5.8,469,2c8.31-3.5,17-2.45,22.79,4.06a30.79,30.79,0,0,1,7.37,18c.75,24.61.2,49.25.13,73.89,0,3.67,0,7.34,0,11.6h39.13V98.49q0-37.45,0-74.92C538.44,9.37,546.6.42,559.74,0,572.41-.33,581.11,9,581.19,23.5c.12,24.63,0,49.27-.08,73.9v12h39.18V48.86c0-8.89-.12-17.79,0-26.68C620.51,9,628,.47,639.51,0c12.81-.5,23.24,8.72,23.41,22,.28,21.89-.23,43.79-.38,65.68,0,7.1,0,14.2,0,22.2,19.62-.39,38.1-.06,51.8,11.24,10.53-9.68,20.58-18.43,29.9-27.9,2-2.07,2.17-6.81,1.91-10.22C744.75,64.81,755,47.79,771,42.27S805.5,43,814.29,57c9.6,15.28,8.31,36.07-4.88,48.16-5.9,5.41-14.59,9.64-22.46,10.56a34.43,34.43,0,0,0-22.14,10.9c-6.18,6.34-12.76,12.29-19.26,18.5,3.79,7.73,6.91,15.29,11.2,22.12,1.46,2.32,5.89,3.87,9,3.9,28.39.28,56.79.08,85.18.16,8.32,0,16.92,2.16,19.14,10.75,1.7,6.58,1.8,16.1-1.86,20.87-4,5.2-13.09,8.69-20.11,9-24.59,1-49.25.23-73.88.14H762.74v25.86c3.6.22,7.18.57,10.76.62,25.65.34,51.31.55,77,.94,14.06.21,22.16,7.08,22.4,18.63.26,12.07-9.07,20.92-22.67,21-28.73.14-57.46,0-87.08,0v26.37c3.21.16,6.8.47,10.4.5,25,.15,50,.17,74.93.37,15,.12,24.34,8.21,24.13,20.72-.19,11.43-10.28,19.86-24.14,19.87-25,0-50-.12-74.92-.19h-10.6v26.49c3.42.18,7,.52,10.59.52q33.87,0,67.74-.09c3.08,0,6.17-.11,9.24.1,13.61.92,22.57,9.32,22.19,20.71-.36,11-10.38,19.81-23.22,19.91-25,.19-50,.08-74.92.1H762.9v26.68h11c25.66,0,51.32-.18,77,.22,12.66.2,21.67,9.09,21.74,20.09.07,10.47-8,18.9-19.44,20.18a70,70,0,0,1-8.2.15l-70.82-.17H763.21V509.1H774.9q32.83,0,65.69,0a94.44,94.44,0,0,1,10.24.33c13.8,1.51,22.06,9.28,21.56,20.08-.52,11.1-10.26,19.43-23.5,19.52-24.63.15-49.27,0-73.9,0H763.18v27.07h54.68c10.95,0,21.9-.15,32.84.1,12.58.28,21.84,8.13,22.12,18.29.33,11.59-8.44,21.33-21.37,21.66-25.3.66-50.62.38-75.94.49-4,0-8,0-11.3,0-1,2-1.46,2.54-1.52,3.16-2.09,23.7-2.08,23.76,21.43,23.72,20.19,0,40.37-.34,60.55-.36,18,0,28.29,7.48,27.92,20.11s-10.66,20-28.25,20c-25,.06-50,.24-74.93,0-5.73-.05-8,1.62-9.79,7.41-3.25,10.65-8.15,20.79-13.15,33.08,7.9,8,17.23,17.91,27.13,27.2,2.07,1.94,6.23,2.15,9.45,2.27a39.15,39.15,0,0,1,37.62,39.64c-.1,19.72-17.25,36.91-37.56,37.66-19.18.7-37.05-15.44-36.44-36.42.38-13-5.67-20.08-13.5-27.86-5.57-5.53-10.42-11.78-14.28-16.21-10.93,4.07-18.95,8.08-27.44,9.95s-17.58,1.67-27.59,2.46c-.19,3.41-.54,7-.57,10.59-.21,23.95,0,47.91-.75,71.84-.19,6.16-1.88,13-5.13,18.17-5.31,8.4-14.27,10.16-23.66,7.45-9.65-2.78-13.35-10.26-13.42-19.57-.19-25.66-.08-51.32-.09-77V762.28H581.72c-.18,3.66-.5,7.28-.51,10.89q-.12,36.95-.11,73.9c0,9.52-2.78,17.72-11.67,22.35-15.16,7.88-30.62-2.16-30.88-20.31-.35-25-.15-50-.18-74.92,0-3.7,0-7.4,0-11.78H499.58v11.11c0,25,.11,49.9,0,74.84-.08,14.61-8.84,23.42-22.71,23.35-12.44-.07-19.44-7.53-19.71-22.46-.44-25-.28-50-.37-74.93C456.76,770.59,456.77,766.86,456.77,761.52Zm-21-575.59q-101.56,0-203.14,0c-22.4,0-35.83,11.3-39.6,33.46a119.58,119.58,0,0,0-1.22,19.41q-.28,84.12-.34,168.26,0,114.92.17,229.82c.06,29.66,16.34,45.81,45.64,45.91,11.63,0,23.25.09,34.88.09q180.57,0,361.15,0c32.66,0,48.84-15.31,48.84-45.91q0-203.67-.43-407.32a59,59,0,0,0-5-22.75c-7.72-17.72-23.51-21.07-40.92-21Q535.85,186,435.81,185.93Z"/><path d="M495.25,496.68c-21.85,0-42.59-.24-63.31.25-3.14.07-6.66,3-9.23,5.49q-66.22,62.85-132.27,125.91a80.67,80.67,0,0,1-10.23,8.52c-8.83,6-18.65,4.83-26.06-2.7-7.21-7.34-8.56-17.85-2.83-26.24a70.44,70.44,0,0,1,9.51-10.71c28.1-27,56.33-53.93,84.38-81,3.64-3.52,7.51-7.35,9.62-11.82,23.34-49.41,46.35-99,70.71-151.22-16.75,0-31.26-.51-45.7.36-3.69.22-7.44,4.45-10.61,7.42-16.47,15.44-32.63,31.21-49.15,46.59-11,10.26-23.92,10.55-32.87,1.31-8.64-8.94-7.8-22.63,2.67-32.84,20.57-20.06,41.16-40.11,62.35-59.49a28.48,28.48,0,0,1,17.08-6.86c31.11-.72,62.26-.85,93.37-.16,6.45.15,14,3.24,19,7.42,19.38,16.2,37.93,33.38,53.06,46.86C551,349.69,567,336.44,582.23,322.32c10.77-10,23.43-11.72,32.43-2.92,10.15,9.92,10.51,22.67-.31,33.46-18.88,18.84-38,37.42-57.69,55.46-14.6,13.41-25.54,12.54-40.28-1.37-12.35-11.66-24.76-23.25-38.5-36.13L442.36,452.7c8.06,0,14,0,20,0,14-.05,28.17,1.06,42-.46,20.24-2.21,33.06,8.46,44.24,22.55,9.35,11.77,8.8,24.47-1.81,35.06-29.78,29.71-59.94,59-90,88.48a40.41,40.41,0,0,1-6.46,5c-10.31,6.67-21.18,5.33-28.61-3.4a20.73,20.73,0,0,1,.71-28.06c19.39-20.26,39.38-39.94,59-59.93C485.81,507.6,489.72,502.86,495.25,496.68Z"/><path d="M500.13,225.14a36.11,36.11,0,0,1,37,35.94c.3,19.88-15.82,35.64-36.89,36.06-19,.39-35.67-15.82-35.85-34.8C464.15,242.12,480.32,225.3,500.13,225.14Z"/></g></g></svg>