<svg xmlns="http://www.w3.org/2000/svg" viewBox="0 0 707.74 839.06"><g id="Layer_2" data-name="Layer 2"><g id="Layer_1-2" data-name="Layer 1"><path d="M59.05,782.67H16v43.46H59.05V811.38l16,3.31v8.13q0,9.42-3.54,12.83T58,839.06H17q-10,0-13.51-3.41T0,822.82V786.63q0-9.36,3.51-12.8T17,770.39H58q9.95,0,13.49,3.44T75,786.63v6.5l-16,2.53Z"/><path d="M106.54,786.63q0-9.36,3.51-12.8t13.51-3.44h50.55q10,0,13.51,3.44t3.51,12.8v36.19q0,9.42-3.51,12.83t-13.51,3.41H123.56q-10,0-13.51-3.41t-3.51-12.83Zm16,39.5h52.68V782.67H122.53Z"/><path d="M224.65,839.06V770.39h10.92l48.33,40.47c1.64,1.34,3.1,2.61,4.35,3.8a42,42,0,0,1,3.45,3.67c-.26-3.85-.44-6.58-.52-8.18s-.13-2.84-.13-3.71V770.39H305.4v68.67H294.49l-50.41-42.43q-1.83-1.62-3.19-2.92a34.94,34.94,0,0,1-2.53-2.66q.33,3.18.49,6c.1,1.88.16,3.52.16,4.9v37.1Z"/><path d="M340.42,839.06V770.39h69.45v12H356.4v18.06h28.91V813H356.4v26Z"/><path d="M429.68,839.06V770.39H500v11.69H445.67v15.33h31.7v11.7h-31.7v17h55v12.93Z"/><path d="M530.12,839.06V770.39h58.73q8.19,0,11.86,3.15t3.67,10.17v16.11q0,6.95-3.67,10.13t-11.86,3.19h-9l31.71,25.92H588.65L561,813.14H545.84v25.92Zm51.65-56.78H545.84v19.1h35.93q4.15,0,5.68-1.2c1-.81,1.53-2.22,1.53-4.26v-8.25c0-2-.51-3.39-1.53-4.19S584.54,782.28,581.77,782.28Z"/><path d="M636.79,839.06V770.39h70.3v11.69H652.78v15.33h31.7v11.7h-31.7v17h55v12.93Z"/><path d="M370,603.68c-9.51,0-17.86,0-26.21,0-5.75,0-4.61,4.19-4.62,7.51,0,20.88.2,41.77-.06,62.65-.16,12.88-11.23,20.35-23,15.95C308.37,686.86,306,680.64,306,673c0-19.79-.05-39.59-.08-59.39,0-2.9,0-5.81,0-9.24H275.31c-.15,3.08-.39,6-.4,8.83,0,19.8,0,39.6,0,59.4,0,10.75-7.05,18.4-17.12,18.71-9.83.3-16.24-6.57-16.31-18.12-.15-22.75,0-45.5,0-68.89H209.89c-.18,2.91-.49,5.77-.5,8.62,0,19.53.08,39.06,0,58.58,0,7.38-1.59,14.08-9,17.74-11.9,5.85-24.19-1.48-24.51-15.21-.46-19.79-.26-39.59-.34-59.39,0-2.94,0-5.88,0-7.6l-45.11-11c-5.15,4.92-12.86,11.71-19.76,19.25-1.84,2-1.82,6.34-1.59,9.53,1.07,14.58-5.85,26.28-19.17,31.62-12.09,4.84-25.55.9-33.85-10.5-7.57-10.41-7.79-22-2.31-33.14,5.16-10.49,14-16.22,26.2-15.95a12,12,0,0,0,7.21-2.17c8.07-6.41,15.82-13.22,23.68-19.89L108.71,572c-2.27-4.85-4.79-9.61-6.75-14.59s-3.36-10.18-5.13-15.66c-21.55,0-43.48,0-65.4,0a52.46,52.46,0,0,1-9.72-.56c-8.89-1.71-14.28-8.9-13.52-17.51.69-7.65,6.8-13.13,15.82-13.22,20.88-.22,41.77-.07,62.65-.07h9.53V489c-3.24-.21-6.36-.59-9.48-.58-20.07.06-40.14.34-60.2.26-10.25,0-16.64-4.84-18.18-12.86-2.18-11.27,4.59-19,17-19.14,20.34-.17,40.68-.11,61-.2,3.18,0,6.35-.31,9.87-.5V435.69c-2.86-.14-5.7-.38-8.54-.38-20.61-.06-41.23.1-61.84-.15-11.23-.14-17.12-5.48-17.55-15-.47-10.19,6.43-16.61,18.51-16.7,20.06-.15,40.13-.06,60.2-.07h9.14V382.2c-2.79-.13-5.63-.36-8.48-.37-20.34-.09-40.68-.11-61-.2-12-.05-18.39-5.51-18.53-15.64C8,355.64,14.78,349.7,26.94,349.67c20.34-.06,40.68,0,61,0h8.31V328.55c-12.37,0-24.22,0-36.07,0-11.66,0-23.33,0-35-.18-10.3-.16-17-6.69-17.23-16.49-.23-9.43,5.77-15.35,16.91-15.5,21.43-.29,42.85-.08,64.28-.11,2.13,0,4.26-.19,7-.33v-21.2H63.62c-11.93,0-23.86.11-35.8.06-13.55-.07-19.71-5.44-19.7-17,0-10.45,6.12-15.32,19.39-15.32,19.8,0,39.6,0,59.4.05H96.2V221.69c-3-.15-5.78-.4-8.62-.41-20.34-.08-40.68,0-61-.17C14.43,221,7.81,215,8,204.54c.2-10.08,6.43-15.36,18.78-15.43,20.07-.11,40.14,0,60.21,0h9.27v-21c-14.39,0-28.41,0-42.43,0-9.22,0-18.45.18-27.66-.16-11.16-.42-18-6.54-18.28-15.67-.27-9.55,6.56-16.3,18.2-16.53,21.69-.44,43.4-.45,65.09-.16,6.2.08,10.09-1.08,11.73-7.76.93-3.8,3.64-7.16,6.29-12.09-7.27-7-14.88-14.58-22.92-21.69-1.71-1.51-5-1.53-7.59-1.68-16.54-1-28.54-13.89-28.27-30.63S62.68,32.37,78.69,32.22c16.41-.15,30.72,12.4,30,28.81-.47,10.25,3.87,16.16,10.59,22,4.69,4.08,9.15,8.44,12.07,11.15l44.44-9c0-1.18,0-4,0-6.9-.09-19.8-.42-39.6-.22-59.39.13-12.12,6.64-19,16.7-18.83,10.52.19,17.12,7.49,17.18,19.46.11,22.22,0,44.43,0,67.31H240.8c.12-2.58.38-5.43.38-8.28,0-19.8-.16-39.6-.08-59.39,0-11.92,6.27-19,16.39-19,10.42-.07,17.35,7.5,17.36,19.2,0,19.53-.07,39.06-.11,58.58,0,2.9,0,5.79,0,9.09h31c.16-3,.43-5.84.43-8.69,0-19.53-.12-39.06-.06-58.58C306.1,7.47,312.55,0,322.83,0c9.89,0,16.52,7.15,16.7,19,.29,19.25.14,38.51.18,57.76V86.9h29.82c.15-2.88.42-5.74.43-8.6.06-20.07,0-40.14.12-60.21.05-7.22,2.45-13.49,9.63-16.51,6.59-2.77,13.5-1.95,18.07,3.21a24.5,24.5,0,0,1,5.84,14.28c.6,19.51.16,39.05.1,58.58v9.2h31V78.08q0-29.7,0-59.4C434.73,7.43,441.2.33,451.61,0c10-.29,16.94,7.07,17,18.6.1,19.53,0,39.05-.05,58.58,0,2.94,0,5.88,0,9.51h31.06v-48c0-7.06-.09-14.11,0-21.16C499.79,7.12,505.7.37,514.85,0,525-.38,533.27,6.93,533.4,17.43c.23,17.35-.18,34.71-.3,52.07,0,5.63,0,11.25,0,17.6,15.56-.31,30.21,0,41.07,8.91,8.34-7.68,16.31-14.61,23.7-22.12,1.61-1.64,1.72-5.4,1.51-8.1-1.1-14.41,7-27.91,19.71-32.28s27.35.55,34.32,11.64c7.61,12.12,6.58,28.6-3.87,38.18a34,34,0,0,1-17.81,8.37,27.27,27.27,0,0,0-17.54,8.64c-4.9,5-10.12,9.75-15.28,14.67,3,6.12,5.48,12.12,8.89,17.53,1.16,1.84,4.67,3.07,7.12,3.1,22.51.21,45,.06,67.53.12,6.59,0,13.41,1.71,15.17,8.52,1.35,5.22,1.43,12.77-1.48,16.55-3.17,4.12-10.37,6.89-15.93,7.1-19.5.77-39,.18-58.57.11h-9.09v20.5c2.85.17,5.68.45,8.52.49,20.34.27,40.68.44,61,.75,11.14.16,17.57,5.61,17.76,14.76.2,9.57-7.19,16.59-18,16.65-22.77.11-45.54,0-69,0v20.9c2.54.13,5.39.38,8.24.39,19.8.12,39.6.14,59.4.3,11.93.1,19.29,6.51,19.13,16.42-.15,9.07-8.15,15.75-19.14,15.76-19.8,0-39.6-.1-59.39-.15h-8.4v21c2.71.14,5.55.41,8.39.41q26.85,0,53.7-.07c2.44,0,4.89-.09,7.32.08,10.8.72,17.89,7.39,17.6,16.41-.29,8.69-8.24,15.71-18.41,15.78-19.8.15-39.6.07-59.39.09h-9.23v21.14h8.7c20.35,0,40.69-.14,61,.17,10,.16,17.17,7.21,17.23,15.93,0,8.3-6.33,15-15.41,16a58.85,58.85,0,0,1-6.51.12l-56.14-.14h-8.65v21.81h61.33a78.68,78.68,0,0,1,8.13.27c10.93,1.19,17.48,7.36,17.09,15.91-.41,8.81-8.14,15.41-18.63,15.47-19.53.13-39.06,0-58.59,0h-9.36v21.46h43.35c8.68,0,17.36-.12,26,.08,10,.22,17.31,6.44,17.54,14.5.26,9.19-6.69,16.9-16.94,17.17-20.06.53-40.13.3-60.2.38-3.16,0-6.33,0-9,0a11.61,11.61,0,0,0-1.2,2.5c-1.66,18.79-1.66,18.84,17,18.8,16,0,32-.27,48-.28,14.29,0,22.43,5.93,22.14,15.94s-8.46,15.81-22.4,15.85c-19.8.05-39.6.19-59.4,0-4.54,0-6.36,1.29-7.76,5.88-2.58,8.44-6.46,16.48-10.42,26.22,6.26,6.36,13.66,14.2,21.5,21.56,1.64,1.54,4.94,1.71,7.5,1.81a31,31,0,0,1,29.81,31.42c-.07,15.63-13.67,29.26-29.77,29.85a28.28,28.28,0,0,1-28.89-28.87c.3-10.29-4.49-15.92-10.7-22.09-4.41-4.38-8.25-9.34-11.31-12.85-8.67,3.23-15,6.41-21.76,7.89s-13.94,1.32-21.87,2c-.15,2.71-.43,5.55-.45,8.4-.17,19,0,38-.6,56.94A29.76,29.76,0,0,1,529,684.2c-4.21,6.66-11.32,8-18.76,5.91-7.65-2.21-10.58-8.13-10.64-15.52-.14-20.34-.06-40.68-.07-61v-9.3H469c-.15,2.91-.4,5.78-.41,8.64q-.09,29.3-.09,58.58c0,7.55-2.2,14-9.25,17.72-12,6.25-24.27-1.71-24.47-16.1-.29-19.79-.13-39.6-.15-59.39,0-2.94,0-5.87,0-9.34H403.92v8.81c0,19.77.09,39.55,0,59.33-.06,11.58-7,18.56-18,18.5-9.87,0-15.42-6-15.63-17.8-.35-19.79-.22-39.6-.3-59.39C370,610.87,370,607.91,370,603.68ZM353.37,147.39q-80.52,0-161,0c-17.76,0-28.4,9-31.39,26.52a95.12,95.12,0,0,0-1,15.39q-.22,66.69-.27,133.38,0,91.1.13,182.19c0,23.51,12.95,36.31,36.18,36.39,9.22,0,18.43.07,27.65.07q143.15,0,286.29,0c25.89,0,38.72-12.14,38.72-36.4q0-161.44-.34-322.89a46.81,46.81,0,0,0-3.93-18c-6.12-14.05-18.64-16.7-32.44-16.68Q432.67,147.46,353.37,147.39Z"/><path d="M400.49,393.73c-17.32,0-33.76-.19-50.19.2-2.49.06-5.28,2.41-7.32,4.35q-52.5,49.83-104.85,99.81a64.6,64.6,0,0,1-8.11,6.76c-7,4.75-14.79,3.83-20.66-2.15-5.72-5.81-6.78-14.14-2.24-20.8a56.08,56.08,0,0,1,7.54-8.48c22.27-21.43,44.65-42.75,66.89-64.22,2.89-2.78,5.95-5.83,7.62-9.37,18.5-39.17,36.74-78.46,56.06-119.87-13.28,0-24.79-.4-36.23.28-2.92.18-5.9,3.53-8.41,5.89-13.06,12.24-25.87,24.73-39,36.93-8.74,8.14-19,8.36-26.06,1-6.85-7.08-6.18-17.93,2.12-26,16.3-15.9,32.62-31.79,49.42-47.15a22.55,22.55,0,0,1,13.54-5.44c24.66-.57,49.35-.68,74-.13a26.34,26.34,0,0,1,15.07,5.89c15.36,12.83,30.07,26.45,42.06,37.14,12.85-11.16,25.56-21.67,37.64-32.86,8.53-7.9,18.57-9.29,25.71-2.32,8,7.87,8.33,18-.25,26.53-15,14.94-30.16,29.67-45.73,44-11.58,10.64-20.25,9.95-31.93-1.08-9.79-9.24-19.63-18.43-30.52-28.64-9.67,22.3-18.57,42.81-28.16,64.91h15.86c11.12,0,22.34.84,33.33-.37,16-1.75,26.2,6.71,35.07,17.87,7.41,9.34,7,19.4-1.44,27.8C417.78,427.72,393.87,451,370,474.31a33,33,0,0,1-5.12,4c-8.18,5.28-16.79,4.22-22.68-2.7a16.42,16.42,0,0,1,.56-22.24c15.37-16.06,31.22-31.66,46.81-47.51C393,402.39,396.1,398.63,400.49,393.73Z"/><path d="M404.36,178.47A28.64,28.64,0,0,1,433.65,207c.23,15.76-12.54,28.25-29.24,28.59C389.36,235.86,376.13,223,376,208,375.84,191.93,388.66,178.6,404.36,178.47Z"/></g></g></svg>