<svg xmlns="http://www.w3.org/2000/svg" viewBox="0 0 920.17 483.54"><defs><style>.cls-1{fill:#ee3224;}</style></defs><g id="Layer_2" data-name="Layer 2"><g id="Layer_1-2" data-name="Layer 1"><path class="cls-1" d="M911.08,245.49c-1.79-1.85-4.19-3-3.44-6.2,5.36-22.82-4.07-45.42-2-67.64,2.12-22.55.29-44.12-2.45-66.23-2.05-16.53-8.78-27.11-24.09-34.48-24.85-12-24.42-12.76-14.08-38.63,3.79-9.47,6.72-19.45-2.84-27C853-2,842.52-1.15,833.56,6c-14.34,11.45-32.68,18.57-40.83,36.93-2.44,5.5-8,6.1-12.91,7.43-16.2,4.36-22.39,15.63-16.43,31.22,1.27,3.31,1.47,5.32-.34,8.36-19.61,33-31.19,69.16-41.52,105.83-3.63,12.91-6.48,26.47-12.71,38.1-7.27,13.55-7.25,31.78-23.52,39.95-25.94,13-37.63,38.47-30,66.34.77,2.84,2.56,7.41,4.34,7.64,15.56,2.05,7.26,11.58,5.72,18.24-2.32,10-6.49,19.6-8.47,29.65-2,10.27-4.28,11.19-13.58,5.24-38.87-24.9-72.68-56.35-110-83.23-12.82-9.25-23.23-20.49-33.48-32.22-7.64-8.76-6.19-12.42,4.9-17.06A698.92,698.92,0,0,0,639.53,193c48.41-34.35,41.14-89.14,1.18-120.53-26.22-20.59-56.6-32.15-87.14-42.76a195.51,195.51,0,0,0-68.5-11.19c-40.86.91-71.82,35.52-68,75.75,1.9,19.88,1.52,39.89,4.05,59.88,3.51,27.82-.06,56-.3,84-.12,13.48-3.58,21.7-15.75,28.5-15.68,8.77-19.48,27.67-7.15,37.65,18.73,15.17,18.09,32.95,13.29,53.16-5.52,23.25-8.78,46.87-7.3,70.85.91,14.58,12.3,24.49,27.06,24.3,14.61-.19,15.19-11,16.69-21.61,3.81-26.92,8.36-53.7,16.48-81.16,9.34,7,17.29,13.68,25.92,19.31,45.29,29.58,85.88,66.76,137.83,85.57,8.24,3,14.22,7,15.77,16.69,1.62,10.17,9.76,12.94,18.74,11.92,12.89-1.47,21.52-8.27,25.24-21.41,11.34-40.09,22.53-80.23,39-118.67,2.51-5.85,5-8.54,11.06-10.68,34.45-12.22,68.31-26,104.76-31.9,7.4-1.21,8.52.06,10,6.25,2.08,8.66-3.14,16.05-2.92,24.27A1114.25,1114.25,0,0,1,847,442.65c-.53,7.2.7,15.45,8.41,18.63,8.28,3.41,16.5.82,22.91-5.43S887.22,441,890,432.56c5.22-15.74,3.19-32.34,6.23-48.2,6.13-31.91,11.84-63.77,9.6-96.45-.3-4.46.74-7.2,4.33-10.51C923.38,265.24,923.31,258.2,911.08,245.49ZM482,231.87c2.65-29.2,9.78-56.18,16.35-83.13,3.5-14.4-1.27-24.72-11.13-32.94-9.69-8.08-19.47-1.5-29.53,4.14-1.18-21.73,3-28.12,22-29.16,42.41-2.29,80.48,11.86,115,35.15,14.4,9.71,14.06,22.27,2.29,35.73-15.26,17.46-36.28,27.48-54.73,40.54C524.57,214.74,503,221.84,482,231.87Zm367.12-2.24c-1.53,23.82-1.38,26.3-24.77,27.68-22.63,1.34-44.54,7.61-68.71,7.9,17.47-41.81,34-82.16,51.24-122.16,6.56-15.2,13.75-14.52,24.77-1.84,19.52,22.46,16.35,49.73,18.28,76C850.22,221.32,849.38,225.49,849.11,229.63Z"/><path class="cls-1" d="M351.34,248c-6.75-5.47-7.58-10.86-6-17.23,3.77-15.17,1.07-29.71-2.1-44.47-1.28-6-2.53-12.77-1-18.44,6-22,0-43.23-2.31-64.76-1.64-15.22-8.75-24.92-23.06-31.83C291.17,58.89,291.6,58,302.13,32a37.85,37.85,0,0,0,2.12-5.81c1.63-7.32,2.21-14.74-4-20.27C293.41-.23,284.17-2,277,2.57,260.65,13.06,242.14,21.65,232,39.51c-3.78,6.65-8.78,9.37-15.6,11C201,54.32,194.42,66.15,200,80.45c1.72,4.4,1.41,7.56-1.1,11.48-14,21.86-22.43,46.3-30.34,70.63-10.83,33.34-19.57,67.32-34.31,99.35a22.2,22.2,0,0,1-11.33,11.64c-26.43,13-38.5,40.2-30.53,67.86,1.26,4.37,3.84,8.1,8.18,8.3,8.3.39,5.28,4.89,4.1,9-6.66,23.33-13.22,46.7-20,70-3.51,12-6,24.14-5.13,36.7.94,14,9.59,20.33,23.24,17.41,9.39-2,14.86-7.85,19.49-16.12,9.1-16.24,9.16-34.89,15.28-51.82,8.58-23.75,18.1-47.19,26-71.17,2.38-7.22,6.28-9.21,12.45-11.48,36.27-13.3,72.12-27.9,113.2-32.15-.56,24-2.28,48.39-1.94,72.77.31,22.54-.63,45.57-2.39,68.32-.64,8.17-.93,17.88,9.36,20.66,9.81,2.65,18.71-1.14,24.33-9.76A63.53,63.53,0,0,0,326,435.23c7.62-26.29,7.92-53.78,12.26-80.63,3.36-20.81,8.52-42,5.53-63.24-1-7.27-.28-10.76,5.23-15.44C358.45,267.9,362.15,256.78,351.34,248Zm-65.67-4.87c.26,6.87-1.51,10-9,11-27.88,3.56-55.66,7.86-84.33,12,17.55-42,34.08-82.35,51.36-122.4,6.92-16,14.61-15.81,25.54-1.61,11.9,15.47,15.72,32.6,16.8,51.91C287,210.55,285,226.81,285.67,243.16Z"/><path class="cls-1" d="M85.76,164.38C94,124.93,101.88,85.44,107.92,45.64c3.8-25.07-6.93-32.36-30.61-22.56-5.23,2.17-10.52,4.24-15.9,6-16.48,5.41-27.22,16-31.77,33-3.72,13.93-7,28.14-12.39,41.42-9.2,22.55-11.15,46-12.17,69.82-.18,4.23.07,8.31,3.58,11.4,8.44,7.43,8.46,17.71,7,27.06C8.45,256.19,4.82,300.87,1.68,345.67c-1.6,22.95-3.74,45.66,2.62,68.15.17,3.6,0,7.25.54,10.79C8.57,448.9,23.87,456,44.49,443c19.71-12.37,21.68-17,17.07-40.4-5-25.44,1.93-50.52,2.11-75.66C64.06,271.64,74.6,218,85.76,164.38Z"/></g></g></svg>