<svg xmlns="http://www.w3.org/2000/svg" version="1.1" xmlns:xlink="http://www.w3.org/1999/xlink" width="512" height="512" x="0" y="0" viewBox="0 0 512 512" style="enable-background:new 0 0 512 512" xml:space="preserve" class=""><g><linearGradient id="a" x1="55.722" x2="456.29" y1="458.29" y2="57.722" gradientTransform="matrix(1 0 0 -1 0 514)" gradientUnits="userSpaceOnUse"><stop offset="0" stop-opacity=".05"></stop><stop offset="1" stop-opacity=".3"></stop></linearGradient><path fill="#b22234" d="M512 128v256c0 22.1-17.9 40-40 40H40c-22.1 0-40-17.9-40-40V128c0-8.7 2.8-17.1 8-24 .5-.7 1-1.3 1.6-1.9 2-2.4 4.3-4.5 6.8-6.4.3-.2.6-.4 1-.7 6.6-4.6 14.5-7 22.6-7h432c22.1 0 40 17.9 40 40z" opacity="1" data-original="#b22234" class=""></path><path fill="#f2f2f2" d="M512 372.3V384c0 4.8-.9 9.6-2.6 14.1H2.6C.9 393.6 0 388.8 0 384v-11.7zM0 320.6h512v25.8H0zM0 268.9h512v25.9H0zM0 217.2h512v25.9H0zM0 165.5h512v25.8H0zM512 128v11.7H0V128c0-4.8.9-9.6 2.6-14.2h506.8c1.7 4.6 2.6 9.4 2.6 14.2z" opacity="1" data-original="#f2f2f2" class=""></path><path fill="#3c3b6e" d="M229.3 88v180.9H0V128c0-8.7 2.8-17.1 8-24 .5-.7 1-1.3 1.6-1.9 2-2.4 4.3-4.5 6.8-6.4.3-.2.6-.4 1-.7 6.6-4.6 14.5-7 22.6-7z" opacity="1" data-original="#3c3b6e"></path><g fill="#f2f2f2"><path d="m23.8 113.8.5 1.3-1.9-1.3-5.4-3.7-5.4 3.7-1.9 1.3.5-1.3 2.3-6.8-4.5-3c.5-.7 1-1.3 1.6-1.9h4.6l2.2-6.4c.3-.2.6-.4 1-.7l2.4 7h9l-7.3 5zM56.1 94l2.8 8.1h9l-7.3 5 2.8 8.1-7.3-5-7.3 5 2.7-8.1-7.3-5h9.1zM95.1 94l2.8 8.1h9.1l-7.3 5 2.7 8.1-7.3-5-7.3 5 2.8-8.1-7.3-5h9zM134.2 94l2.8 8.1h9l-7.3 5 2.8 8.1-7.3-5-7.3 5 2.8-8.1-7.3-5h9zM173.3 94l2.8 8.1h9l-7.3 5 2.8 8.1-7.3-5-7.3 5 2.8-8.1-7.4-5h9.1zM212.4 94l2.7 8.1h9.1l-7.3 5 2.7 8.1-7.2-5-7.4 5 2.8-8.1-7.3-5h9.1zM192.8 124.1l2.7 8.1h9.1l-7.3 5 2.8 8.1-7.3-5-7.4 5 2.8-8.1-7.3-5h9zM154.9 124.1l2.8 8.1h9.1l-7.3 5 2.7 8.1-7.3-5-7.3 5 2.8-8.1-7.3-5h9zM116.1 124.1l2.8 8.1h9l-7.3 5 2.8 8.1-7.3-5-7.3 5 2.8-8.1-7.3-5h9zM77.3 124.1l2.8 8.1h9l-7.3 5 2.8 8.1-7.3-5-7.3 5 2.8-8.1-7.3-5h9zM37.4 124.1l2.8 8.1h9l-7.3 5 2.8 8.1-7.3-5-7.3 5 2.8-8.1-7.3-5h9zM17 152.8l2.8 8.1h9l-7.3 5 2.8 8.1-7.3-5-7.3 5 2.8-8.1-7.3-5h9zM56.1 152.8l2.8 8.1h9l-7.3 5 2.8 8.1-7.3-5-7.3 5 2.7-8.1-7.3-5h9.1zM95.1 152.8l2.8 8.1h9.1l-7.3 5 2.7 8.1-7.3-5-7.3 5 2.8-8.1-7.3-5h9zM134.2 152.8l2.8 8.1h9l-7.3 5 2.8 8.1-7.3-5-7.3 5 2.8-8.1-7.3-5h9zM173.3 152.8l2.8 8.1h9l-7.3 5 2.8 8.1-7.3-5-7.3 5 2.8-8.1-7.4-5h9.1zM212.4 152.8l2.7 8.1h9.1l-7.3 5 2.7 8.1-7.2-5-7.4 5 2.8-8.1-7.3-5h9.1zM192.8 182.9l2.7 8.1h9.1l-7.3 5 2.8 8.1-7.3-5-7.4 5 2.8-8.1-7.3-5h9zM154.9 182.9l2.8 8.1h9.1l-7.3 5 2.7 8.1-7.3-5-7.3 5 2.8-8.1-7.3-5h9zM116.1 182.9l2.8 8.1h9l-7.3 5 2.8 8.1-7.3-5-7.3 5 2.8-8.1-7.3-5h9zM77.3 182.9l2.8 8.1h9l-7.3 5 2.8 8.1-7.3-5-7.3 5 2.8-8.1-7.3-5h9zM37.4 182.9l2.8 8.1h9l-7.3 5 2.8 8.1-7.3-5-7.3 5 2.8-8.1-7.3-5h9zM17 211.7l2.8 8h9l-7.3 5 2.8 8.1-7.3-5-7.3 5 2.8-8.1-7.3-5h9zM56.1 211.7l2.8 8h9l-7.3 5 2.8 8.1-7.3-5-7.3 5 2.7-8.1-7.3-5h9.1zM95.1 211.7l2.8 8h9.1l-7.3 5 2.7 8.1-7.3-5-7.3 5 2.8-8.1-7.3-5h9zM134.2 211.7l2.8 8h9l-7.3 5 2.8 8.1-7.3-5-7.3 5 2.8-8.1-7.3-5h9zM173.3 211.7l2.8 8h9l-7.3 5 2.8 8.1-7.3-5-7.3 5 2.8-8.1-7.4-5h9.1zM212.4 211.7l2.7 8h9.1l-7.3 5 2.7 8.1-7.2-5-7.4 5 2.8-8.1-7.3-5h9.1zM192.8 241.8l2.7 8h9.1l-7.3 5 2.8 8.1-7.3-5-7.4 5 2.8-8.1-7.3-5h9zM154.9 241.8l2.8 8h9.1l-7.3 5 2.7 8.1-7.3-5-7.3 5 2.8-8.1-7.3-5h9zM116.1 241.8l2.8 8h9l-7.3 5 2.8 8.1-7.3-5-7.3 5 2.8-8.1-7.3-5h9zM77.3 241.8l2.8 8h9l-7.3 5 2.8 8.1-7.3-5-7.3 5 2.8-8.1-7.3-5h9zM37.4 241.8l2.8 8h9l-7.3 5 2.8 8.1-7.3-5-7.3 5 2.8-8.1-7.3-5h9z" fill="#f2f2f2" opacity="1" data-original="#f2f2f2" class=""></path></g><path fill="url(#a)" d="M502.9 102.6c-7.6-9.3-19-14.6-30.9-14.6H40c-22.1 0-40 17.9-40 40v256c0 9.4 3.3 18.4 9.3 25.6.8 1 1.7 1.9 2.6 2.9C19.4 419.9 29.5 424 40 424h432c22.1 0 40-17.9 40-40V128c0-9.3-3.2-18.3-9.1-25.4zM40 400c-2.5 0-5-.6-7.2-1.7-1.5-.7-2.8-1.7-3.9-2.9-3.1-3-4.8-7.1-4.8-11.3V127.9c0-8.8 7.1-15.9 15.9-15.9h432.2c7.2.1 13.5 4.9 15.4 11.9-11 187-134 253.7-200.2 276.1z" opacity="1" data-original="url(#a)" class=""></path></g></svg>