<svg xmlns="http://www.w3.org/2000/svg" version="1.1" xmlns:xlink="http://www.w3.org/1999/xlink" width="512" height="512" x="0" y="0" viewBox="0 0 512 512" style="enable-background:new 0 0 512 512" xml:space="preserve" class=""><g><linearGradient id="a" x1="55.722" x2="456.29" y1="458.29" y2="57.722" gradientTransform="matrix(1 0 0 -1 0 514)" gradientUnits="userSpaceOnUse"><stop offset="0" stop-opacity=".05"></stop><stop offset="1" stop-opacity=".3"></stop></linearGradient><path fill="#009b3a" d="M40 88h432c22.1 0 40 17.9 40 40v256c0 22.1-17.9 40-40 40H40c-22.1 0-40-17.9-40-40V128c0-22.1 17.9-40 40-40z" opacity="1" data-original="#009b3a"></path><path fill="#fedf00" d="M256 121 41.4 256 256 391l214.6-135z" opacity="1" data-original="#fedf00"></path><circle cx="256" cy="256" r="81.5" fill="#002776" opacity="1" data-original="#002776"></circle><g fill="#fff"><path d="m243.1 288.4 8.6 1.2-6.2 6.1 1.6 8.5-7.7-4-7.7 4.1 1.4-8.5-6.2-6 8.5-1.3 3.8-7.9zM297.8 224.8l8.6 1.2-6.2 6.1 1.5 8.5-7.7-4-7.6 4.1 1.4-8.5-6.3-6.1 8.6-1.3 3.8-7.8zM249.1 197l8.6 1.2-6.2 6 1.5 8.6-7.7-4-7.6 4.1 1.4-8.6-6.3-6 8.6-1.3 3.8-7.8zM210.3 234.7l8.6 1.2-6.2 6.1 1.6 8.6-7.7-4-7.7 4.1 1.4-8.6-6.2-6 8.5-1.3 3.8-7.8zM254.7 240.2l5.5.7-4 3.9 1 5.5-5-2.5-4.8 2.6.9-5.5-4-3.9 5.5-.8 2.4-5z" fill="#ffffff" opacity="1" data-original="#ffffff"></path></g><path fill="url(#a)" d="M502.9 102.6c-7.6-9.3-19-14.6-30.9-14.6H40c-22.1 0-40 17.9-40 40v256c0 9.4 3.3 18.4 9.3 25.6.8 1 1.7 1.9 2.6 2.9C19.4 419.9 29.5 424 40 424h432c22.1 0 40-17.9 40-40V128c0-9.3-3.2-18.3-9.1-25.4zM40 400c-2.5 0-5-.6-7.2-1.7-1.5-.7-2.8-1.7-3.9-2.9-3.1-3-4.8-7.1-4.8-11.3V127.9c0-8.8 7.1-15.9 15.9-15.9h432.2c7.2.1 13.5 4.9 15.4 11.9-11 187-134 253.7-200.2 276.1z" opacity="1" data-original="url(#a)"></path></g></svg>