<svg xmlns="http://www.w3.org/2000/svg" version="1.1" xmlns:xlink="http://www.w3.org/1999/xlink" width="512" height="512" x="0" y="0" viewBox="0 0 64 64" style="enable-background:new 0 0 512 512" xml:space="preserve" class=""><g><g data-name="VGA Port"><path d="M53.317 21.492A5.934 5.934 0 0 0 48.45 19h-32.9a6.001 6.001 0 0 0-5.693 7.897l4.333 13A5.993 5.993 0 0 0 19.883 44h24.234a5.993 5.993 0 0 0 5.693-4.103l4.333-13a5.935 5.935 0 0 0-.826-5.405zm-2.97 4.14-4.332 13A1.997 1.997 0 0 1 44.117 40H19.883a1.997 1.997 0 0 1-1.898-1.368l-4.333-13A2 2 0 0 1 15.55 23h32.9a2 2 0 0 1 1.898 2.632z" fill="#000000" opacity="1" data-original="#000000" class=""></path><circle cx="32" cy="28" r="2" fill="#000000" opacity="1" data-original="#000000" class=""></circle><circle cx="38" cy="28" r="2" fill="#000000" opacity="1" data-original="#000000" class=""></circle><circle cx="26" cy="28" r="2" fill="#000000" opacity="1" data-original="#000000" class=""></circle><circle cx="44" cy="28" r="2" fill="#000000" opacity="1" data-original="#000000" class=""></circle><circle cx="20" cy="28" r="2" fill="#000000" opacity="1" data-original="#000000" class=""></circle><circle cx="29" cy="35" r="2" fill="#000000" opacity="1" data-original="#000000" class=""></circle><circle cx="35" cy="35" r="2" fill="#000000" opacity="1" data-original="#000000" class=""></circle><circle cx="23" cy="35" r="2" fill="#000000" opacity="1" data-original="#000000" class=""></circle><circle cx="41" cy="35" r="2" fill="#000000" opacity="1" data-original="#000000" class=""></circle></g></g></svg>