<svg xmlns="http://www.w3.org/2000/svg" version="1.1" xmlns:xlink="http://www.w3.org/1999/xlink" width="512" height="512" x="0" y="0" viewBox="0 0 64 64" style="enable-background:new 0 0 512 512" xml:space="preserve" class=""><g><linearGradient id="a" x1="78.644" x2="25.425" y1="74.123" y2="11.863" gradientUnits="userSpaceOnUse"><stop offset=".003" stop-color="#ff37df"></stop><stop offset="1" stop-color="#6e00ff"></stop></linearGradient><path fill="url(#a)" fill-rule="evenodd" d="M18 2C9.163 2 2 9.163 2 18v28c0 8.837 7.163 16 16 16h28c8.837 0 16-7.163 16-16V18c0-8.837-7.163-16-16-16zm10 30a2 2 0 0 1-.662 1.487l-10 9a2 2 0 1 1-2.676-2.974L23.01 32l-8.348-7.513a2 2 0 0 1 2.676-2.974l10 9A2 2 0 0 1 28 32zm20 11a2 2 0 1 0 0-4H32a2 2 0 1 0 0 4z" clip-rule="evenodd" opacity="1" data-original="url(#a)" class=""></path></g></svg>